<svg xmlns:dc="http://purl.org/dc/elements/1.1/" xmlns:cc="http://creativecommons.org/ns#" xmlns:rdf="http://www.w3.org/1999/02/22-rdf-syntax-ns#" xmlns:svg="http://www.w3.org/2000/svg" xmlns="http://www.w3.org/2000/svg" xmlns:sodipodi="http://sodipodi.sourceforge.net/DTD/sodipodi-0.dtd" xmlns:inkscape="http://www.inkscape.org/namespaces/inkscape" version="1.1" viewBox="0 0 15.869954 31.2499875" x="0px" y="0px"><g transform="translate(73.299,56.134682)"><path style="" d="m -66.210062,-55.332485 c -0.0079,0.913303 -0.02159,1.829223 -0.04166,2.74776 -0.0013,0.03533 -0.0263,0.06553 -0.06031,0.07207 l -1.553026,0.282648 c -0.02355,0.0039 -0.04577,-0.01581 -0.04447,-0.03936 0.02617,-0.416962 0.02655,-0.835212 0.0013,-1.25479 -0.07327,-1.177612 -1.596276,-0.953856 -1.560948,0.272169 0.01745,0.615848 0.0078,1.169253 -0.02888,1.66036 -0.0026,0.04056 -0.02498,0.0772 -0.06031,0.09813 -5.728427,3.330024 -4.610943,11.234527 1.534882,13.265253 0.03663,0.01309 0.06031,0.04588 0.06031,0.08382 l 0.01303,5.261173 c 0,0.03402 -0.0263,0.06156 -0.06031,0.06287 -1.068024,0.04064 -1.390143,0.776331 -1.163046,1.140811 0.45011,0.787692 2.219022,0.631985 2.818296,0.09813 0.173587,-0.227672 0.260818,-0.385447 0.261691,-0.47355 0.01745,-1.624231 0.02135,-3.248899 0.01175,-4.874003 -0.01858,-0.926252 1.423903,-0.970775 1.43547,0 -0.0096,1.625104 -0.0057,3.249772 0.01176,4.874003 9.39e-4,0.0881 0.0881,0.245878 0.261691,0.47355 0.599273,0.53385 2.368185,0.689557 2.818294,-0.09813 0.227097,-0.36448 -0.09502,-1.10017 -1.163044,-1.140811 -0.03402,-0.0013 -0.06031,-0.02885 -0.06031,-0.06287 l 0.01303,-5.261173 c 0,-0.03795 0.02367,-0.07074 0.06031,-0.08382 6.145824,-2.030726 7.263307,-9.935229 1.534881,-13.265253 -0.03533,-0.02093 -0.05769,-0.05757 -0.06031,-0.09813 -0.03664,-0.491107 -0.04632,-1.044512 -0.02888,-1.66036 0.03533,-1.226025 -1.487675,-1.449781 -1.560948,-0.272169 -0.02524,0.419578 -0.0249,0.837828 0.0013,1.25479 0.0013,0.02356 -0.02091,0.04328 -0.04447,0.03936 l -1.553026,-0.282648 c -0.03402,-0.0065 -0.059,-0.03674 -0.06031,-0.07207 -0.02006,-0.918537 -0.03381,-1.834457 -0.04165,-2.74776 -0.0041,-0.492307 -0.389023,-0.802197 -0.846025,-0.802197 -0.457001,0 -0.841936,0.30989 -0.846025,0.802197 z m -2.478147,8.419872 c 0.809935,0 1.465626,0.65569 1.465626,1.465625 0,0.809935 -0.655691,1.46537 -1.465626,1.46537 -0.809935,0 -1.46537,-0.655435 -1.46537,-1.46537 0,-0.809935 0.655435,-1.465625 1.46537,-1.465625 z m 6.648343,0 c 0.809935,0 1.46537,0.65569 1.46537,1.465625 0,0.809935 -0.655435,1.46537 -1.46537,1.46537 -0.809935,0 -1.465625,-0.655435 -1.465625,-1.46537 0,-0.809935 0.65569,-1.465625 1.465625,-1.465625 z m -6.653965,0.587527 c -0.479297,0.0038 -0.865842,0.39342 -0.865831,0.872732 5e-6,0.481993 0.390736,0.872726 0.872731,0.872731 0.481993,-5e-6 0.872725,-0.390738 0.872731,-0.872731 -6e-6,-0.481994 -0.390738,-0.872726 -0.872731,-0.872732 -0.0023,-9e-6 -0.0046,-9e-6 -0.0069,0 z m 6.652688,0 c -0.481994,6e-6 -0.872724,0.390738 -0.87273,0.872732 4e-6,0.481994 0.390736,0.872726 0.87273,0.872731 0.481994,-5e-6 0.872725,-0.390738 0.872731,-0.872731 10e-6,-0.479312 -0.386534,-0.868937 -0.865831,-0.872732 -0.0023,-9e-6 -0.0046,-9e-6 -0.0069,0 z m -4.288265,4.219775 c 0.179638,-0.0012 0.324835,0.143958 0.325581,0.323282 l 0.0013,0.319192 c 7.91e-4,0.179206 -0.144658,0.324645 -0.323537,0.325836 l -0.816507,0.0028 c -0.179639,0.0012 -0.324835,-0.144213 -0.325581,-0.323537 l -10e-4,-0.319192 c -7.91e-4,-0.179206 0.144403,-0.32439 0.323282,-0.325581 z m 1.930741,0 0.816508,0.0028 c 0.17888,0.0012 0.324067,0.146375 0.323282,0.325581 l -0.001,0.319192 c -7.91e-4,0.179324 -0.145944,0.324715 -0.325582,0.323537 l -0.816508,-0.0028 c -0.178879,-0.0012 -0.324322,-0.14663 -0.323537,-0.325836 l 0.0013,-0.319192 c 7.91e-4,-0.179324 0.145943,-0.324459 0.325581,-0.323282 z" fill="#000000" fill-opacity="1" stroke="none"/></g><text x="0" y="39.99999" fill="#000000" font-size="5px" font-weight="bold" font-family="'Helvetica Neue', Helvetica, Arial-Unicode, Arial, Sans-serif">Created by Gabriel Baudon</text><text x="0" y="44.99999" fill="#000000" font-size="5px" font-weight="bold" font-family="'Helvetica Neue', Helvetica, Arial-Unicode, Arial, Sans-serif">from the Noun Project</text></svg>