<svg xmlns="http://www.w3.org/2000/svg" xmlns:xlink="http://www.w3.org/1999/xlink" version="1.1" x="0px" y="0px" viewBox="0 0 1000 1250" style="enable-background:new 0 0 1000 1000;" xml:space="preserve"><g><path d="M659.6361084,854.506958c18.5505981,23.678894,24.4433594,50.4562378,21.8353882,80.2910767   c-2.2043457,25.2176514-16.2615356,50.8676147-43.3192139,55.6728516   c-24.3478394,4.3238525-47.036499-13.3935547-55.8048096-35.2483521   c-5.1419678-12.81604-4.0877075-26.6306763-4.0655518-40.1555786c0.0256958-15.7132568,0.1286011-31.4261475,0.1286011-47.1394043   c-52.491333,6.2096558-104.5288391,5.9854736-156.7900391,1.8104858c0,15.9083862,0.0624695,31.8121948,0.1711731,47.7194824   c0.0962524,14.0916748-0.0005493,28.302124-6.2537537,41.2388306   c-10.5068359,21.7365112-33.2104797,37.5510864-57.7689514,30.8626709   c-25.1404419-6.8470459-35.3596802-27.6622314-38.1827393-51.6759644   c-3.2778015-27.881958-0.2868347-56.0319824,17.1973267-78.9943848   c-42.1855164-16.6054688-72.8685608-49.8292847-99.3049622-85.4713135   c3.057251,17.0550537,6.7005005,37.6544189-15.2844086,42.9069824   c-16.8661041,4.0297241-33.799881-9.8706665-41.4395752-23.8231201   c-17.1509247-31.322937-2.5284882-69.9205933,20.7137146-93.5047607   c-6.7970428-15.8981323-13.1078186-32.1201172-17.6615448-50.010437   c-5.5187378,5.5820923-10.3119507,11.7885132-14.653244,18.3154297   c-2.7365112,4.1141968-5.5742645,11.8471069-11.3502808,12.4559326   c-13.8831787,1.4633789-8.459549-29.6362305-7.5223389-36.8048096   c2.1926422-16.7713623,6.3419342-33.7970581,11.8163605-49.7952881   c5.5621643-16.2545776,11.170639-32.3051758,4.1627197-49.1793213c-2.3177338-0.34729-5.7315369,5.1776123-7.0581207,6.579895   c-3.6553497,3.8638306-7.5690002,7.5258179-11.4538269,11.1569824   c-6.2941895,5.8832397-14.166626,15.2982178-22.2537537,18.4743652   c-20.3646393,7.9979248-8.0646439-37.1671753-6.5259476-45.5981445   c3.7317734-20.4476318,8.6021194-40.6827087,14.4747543-60.619751c3.0298309-10.2859802,6.3244629-20.4936829,9.8672638-30.6144409   c1.8813019-5.3744202,3.8348083-10.7234802,5.8515778-16.0484619c1.2359772-3.2633362,4.9891357-8.9232178,3.6752625-12.5201721   c-14.3289185,6.3227234-27.1921844,16.0024109-37.4160614,27.8513184   c-4.0231476,4.6625977-11.0016556,13.1921387-17.2982483,5.6864319   c-3.8825073-4.6280212-0.2860336-13.5538025,1.0640335-18.5306702   c8.9641113-33.0450439,32.097374-60.7937317,56.4032822-83.9796753   c-15.8394318-5.3937073-33.5711288-1.6141357-49.3864136-7.066864c-15.25737-5.2603455-12.2325821-17.3355713-1.7856369-26.2607117   c23.5257034-20.0986023,53.6762619-27.4116211,82.9912796-34.4963074   c-4.8496704-5.1736755-12.6735229-7.9981384-18.9068451-11.1365051   c-7.6525421-3.8529358-15.3713531-7.5721436-23.0746155-11.3219452   c-9.5700073-4.6585083-23.5928116-11.7837067-15.9910431-24.8057709   c6.2480621-10.703186,25.2511139-14.1291656,36.2588959-15.8484344c17.3497925-2.7098083,36.3291473-3.006897,53.6051636,0.2092438   c-22.2301941-24.7917786-43.5510712-48.5609894-57.6086273-79.1875305   c-6.8350067-14.8911591-12.3495483-30.9442291-14.9854736-47.1530685   c-0.7425232-4.5657959-2.4569397-11.1129761,1.2845306-14.7997818c5.2741699-5.1971283,9.933075-0.5349426,13.3832397,3.5369415   c21.3647919,25.2148514,50.5126801,39.5665741,81.905014,48.8739624   c33.6729126,9.9835968,70.662384,15.3675385,105.7919312,15.0726929   c5.0995178-14.6837158,9.8553162-29.4780655,16.2619019-43.6656799   c5.6136475-12.4316864,13.6886597-31.4620132,25.2668762-39.5463829   c17.2895508-12.0722733,14.1676941,17.0642586,14.1035461,25.3986244   c-0.1381531,17.942543,0.5089111,34.8195953,4.7602539,52.3418808c4.5840454-1.0798035,9.3984375-21.3582535,11.0388794-25.4548264   c3.9452515-9.8524323,8.0585327-19.6374359,12.3525085-29.3430481   c8.9805908-20.2988319,18.3059387-40.9096718,29.6802368-59.9977989   c3.1495972-5.2856283,8.4812317-16.1995659,16.3648987-10.8522348c6.3538208,4.3097115,4.5077209,18.6000595,4.0525513,24.8792343   c-0.7933655,10.9441948-2.9057312,21.8574715-4.5149841,32.7070351c-0.8799744,5.9326172-1.76297,11.8647919-2.6327515,17.7989044   c-0.5423584,3.7005539-3.0075073,10.3299789-0.6180115,13.8854752   c26.5488586-31.0157623,62.7625122-61.8646889,103.9060059-70.4747772   c6.7561646-1.4138699,16.0431519,0.1174927,13.8563232,9.657486c-1.7821655,7.7747688-14.6366577,13.5586166-20.1849976,18.4657898   c-13.545166,11.9801636-29.5037842,29.1450729-35.1148071,46.7173538   c35.0775146-21.0679245,71.7540283-43.5293465,113.5233154-47.9486275   c6.746582-0.7137871,20.395813-0.4881554,16.7694092,10.3401527c-2.2158813,6.616478-16.039917,10.9451904-21.5992432,14.3365631   c-16.9102783,10.3157043-31.4721069,24.0851212-41.7250977,41.1113968   c28.4863281-5.9893723,56.7702637-12.523735,86.1206055-10.7073517c12.220459,0.7562637,25.75,2.4044189,37.1051636,7.2978897   c3.9268799,1.6923065,9.1898193,4.3521271,7.458374,9.8405838c-1.3284912,4.2111969-6.7866821,4.399353-9.9335938,6.5291443   c5.1713257,1.9763336,13.8748169-2.0544434,18.8867798-3.4373169c6.333313-1.747406,12.6264038-3.6501389,18.8413696-5.7824783   c12.2926636-4.2176132,24.314209-9.3102951,35.6470337-15.6937714   c11.4259033-6.4358902,22.4698486-14.1747513,31.8096313-23.4246292   c4.6524658-4.6077271,16.3001709-23.8729973,22.5864868-10.0269775c4.4013672,9.6942902-3.9370728,29.2592316-7.1392212,38.5263672   c-4.5159302,13.0694427-10.1982422,25.752533-16.895874,37.848114   c-12.7631836,23.0496368-29.4240723,42.4464417-47.3405151,61.5701599   c6.335083,1.8763275,14.7567749-0.6450195,21.3237305-0.9568024c8.5549316-0.4061432,17.1602783-0.3719025,25.6851196,0.5290222   c12.682251,1.3403168,32.5134277,4.1330566,41.6240234,14.3017883   c10.3988647,11.6064453-1.3225708,20.9319305-11.3234863,25.7090302   c-15.8790283,7.5849915-31.9769287,14.7268982-46.7859497,24.325592c30.1764526,7.3964844,63.5990601,15.272644,86.90625,37.460144   c10.7831421,10.2651672,3.1020508,21.2611389-9.24646,23.9819031c-15.2999268,3.3710327-31.2574463,2.6532288-46.6082153,5.9510498   c23.9219971,24.7176514,48.8297119,51.8309631,57.503479,86.178833c1.2462158,4.9351196,4.0327759,13.6958618-0.4622192,17.755127   c-6.4161987,5.7941284-11.6229248-2.2556152-15.1723633-6.5678101   c-8.7140503-10.5867004-24.8674927-26.2726746-39.3919678-27.4431458   c16.4642334,40.5469055,29.0135498,83.1090393,36.6535645,126.2128906   c1.3343506,7.5283203,12.1845093,44.9015503-7.2033691,38.7776489   c-7.4918823-2.3664551-15.7542725-13.2855835-21.229126-18.4462891c-3.5706177-3.3657227-7.1205444-6.753418-10.6861572-10.1245117   c-2.359314-2.2306519-6.4887695-8.2243042-10.1676025-8.4899902c-3.3762207,17.8811035-3.2484131,31.7053223,3.0169678,48.8533325   c5.5587158,15.2138672,10.1136475,30.8464355,12.4015503,46.9093628c1.128418,7.9225464,6.9059448,37.9403076-5.1555176,40.1384888   c-6.6494141,1.211853-10.5042725-7.8120117-13.5257568-12.0274658c-4.4572754-6.21875-8.9137573-12.116272-14.1716309-17.6802979   c-5.1792603,17.6870117-10.3608398,34.40979-17.3962402,50.9595337   c24.3405151,25.4226074,37.7056274,66.4711914,14.9821167,97.3746338   c-9.7782593,13.2982788-26.5239868,23.6608887-43.2719727,16.4638062   c-15.7035522-6.74823-13.105957-23.2147827-11.1014404-37.0184326   C734.7510376,816.0404053,701.5134888,840.2737427,659.6361084,854.506958z M375.041748,576.6704102   c54.561554-0.229248,96.6590576-42.3462524,96.5002136-96.5446777   c-0.1531982-52.2710876-44.2603455-96.2689514-96.3215027-96.0829163   c-52.7886353,0.1886597-96.3667603,43.6551819-96.2427673,95.9964905   C279.105072,533.8165283,321.9293213,576.8935547,375.041748,576.6704102z M623.4705811,576.6858521   c53.8099365-0.0838623,96.8115845-43.0287476,96.7957764-96.6680298   c-0.0154419-52.3861389-43.3936768-96.0730286-95.3023071-95.9804688   c-52.9613037,0.0943604-96.7384644,43.6173706-96.8926392,96.3299255   C527.9153442,533.7265625,570.5463257,576.7683716,623.4705811,576.6858521z M458.4536743,629.1865845   c3.9465942,19.3288574,16.7476501,50.6322021,41.0353699,50.152832   c23.999176-0.4735718,34.8050842-31.1370239,38.7444763-50.152832   C511.306366,629.1865845,485.3761597,629.1865845,458.4536743,629.1865845z M551.8300171,629.5334473   c2.3794556,18.6925049,16.87677,47.3825684,39.2816162,46.1171875   c21.4906006-1.2136841,32.737793-28.4053955,36.6519775-46.1171875   C602.1695557,629.5334473,577.2875977,629.5334473,551.8300171,629.5334473z M446.9789734,629.6217651   c-26.2059326,0-51.3448792,0-76.8709717,0c3.5095215,18.1309814,16.3963928,46.506958,38.607605,46.0380249   C430.4755554,675.2003174,442.7376709,647.3566284,446.9789734,629.6217651z"/><path d="M414.3575745,530.4911499c-42.9360046,0.0150146-41.7905273-67.0449219,0.7399902-66.4937439   c17.6646423,0.2289429,32.4852905,14.8429565,33.1229248,32.4464111   C448.9130859,515.5669556,433.1914978,530.4844971,414.3575745,530.4911499z M430.8792419,477.8312683   c-0.3965759-15.2226868-24.1648254-13.5337219-22.3978882,1.7145081   C410.1081848,493.5848694,431.2449951,491.8693237,430.8792419,477.8312683z"/><path d="M583.56073,530.7265625c-17.8684082,0.1740723-33.3731079-15.059082-33.3973999-32.812561   c-0.0249634-18.34552,15.072876-33.7107239,33.2749634-33.8643188   c17.6324463-0.1488037,32.9415894,15.044281,33.3365479,33.0840454   C617.1765137,515.4782715,602.2804565,530.5441895,583.56073,530.7265625z M593.4385986,478.2002258   c-0.0283203-15.1829529-23.7183228-14.6134033-22.3938599,0.936615   C572.2384644,493.1524658,593.4654541,492.6153564,593.4385986,478.2002258z"/></g><text x="0" y="1015" fill="#000000" font-size="5px" font-weight="bold" font-family="'Helvetica Neue', Helvetica, Arial-Unicode, Arial, Sans-serif">Created by Nicky Spencer</text><text x="0" y="1020" fill="#000000" font-size="5px" font-weight="bold" font-family="'Helvetica Neue', Helvetica, Arial-Unicode, Arial, Sans-serif">from the Noun Project</text></svg>